<svg height="150" preserveAspectRatio="xMidYMid meet" viewBox="0 0 224.87999 112.499997" width="300" xmlns="http://www.w3.org/2000/svg" zoomAndPan="magnify"><g fill="#02273e"><g><path d="m23-19.796875-4.75 4.734375v15.0625h-13.1875v-70.078125h13.1875v38.828125l2.546875-3.28125 12.640625-14.828125h15.84375l-17.84375 20.578125 19.390625 28.78125h-15.15625zm0 0" transform="translate(19.02319 87.359391)"/><path d="m3.015625-25.140625c0-4.894531.941406-9.257813 2.828125-13.09375 1.882812-3.832031 4.597656-6.796875 8.140625-8.890625 3.539063-2.101562 7.65625-3.15625 12.34375-3.15625 6.65625 0 12.085937 2.042969 16.296875 6.125 4.21875 4.074219 6.570312 9.605469 7.0625 16.59375l.09375 3.375c0 7.585938-2.117188 13.664062-6.34375 18.234375-4.230469 4.574219-9.90625 6.859375-17.03125 6.859375-7.117188 0-12.792969-2.28125-17.03125-6.84375-4.242188-4.5625-6.359375-10.765625-6.359375-18.609375zm13.1875.953125c0 4.6875.878906 8.273438 2.640625 10.75 1.757812 2.480469 4.285156 3.71875 7.578125 3.71875 3.1875 0 5.675781-1.222656 7.46875-3.671875 1.800781-2.445313 2.703125-6.363281 2.703125-11.75 0-4.59375-.902344-8.148437-2.703125-10.671875-1.792969-2.519531-4.3125-3.78125-7.5625-3.78125-3.230469 0-5.726563 1.257812-7.484375 3.765625-1.761719 2.5-2.640625 6.382813-2.640625 11.640625zm0 0" transform="translate(68.931695 87.359391)"/></g><g><path d="m3.015625-25.140625c0-4.894531.941406-9.257813 2.828125-13.09375 1.882812-3.832031 4.597656-6.796875 8.140625-8.890625 3.539063-2.101562 7.65625-3.15625 12.34375-3.15625 6.65625 0 12.085937 2.042969 16.296875 6.125 4.21875 4.074219 6.570312 9.605469 7.0625 16.59375l.09375 3.375c0 7.585938-2.117188 13.664062-6.34375 18.234375-4.230469 4.574219-9.90625 6.859375-17.03125 6.859375-7.117188 0-12.792969-2.28125-17.03125-6.84375-4.242188-4.5625-6.359375-10.765625-6.359375-18.609375zm13.1875.953125c0 4.6875.878906 8.273438 2.640625 10.75 1.757812 2.480469 4.285156 3.71875 7.578125 3.71875 3.1875 0 5.675781-1.222656 7.46875-3.671875 1.800781-2.445313 2.703125-6.363281 2.703125-11.75 0-4.59375-.902344-8.148437-2.703125-10.671875-1.792969-2.519531-4.3125-3.78125-7.5625-3.78125-3.230469 0-5.726563 1.257812-7.484375 3.765625-1.761719 2.5-2.640625 6.382813-2.640625 11.640625zm0 0" transform="translate(105.90515 87.359391)"/><path d="m20.84375-61.5v12.140625h8.453125v9.671875h-8.453125v24.625c0 1.835938.347656 3.148438 1.046875 3.9375.707031.78125 2.050781 1.171875 4.03125 1.171875 1.457031 0 2.75-.101563 3.875-.3125v9.984375c-2.585937.789062-5.246094 1.1875-7.984375 1.1875-9.25 0-13.964844-4.664062-14.140625-14v-26.59375h-7.21875v-9.671875h7.21875v-12.140625zm0 0" transform="translate(158.733348 87.359391)"/></g></g></svg>